<?xml version="1.0" encoding="UTF-8"?>
<svg width="573px" height="553px" viewBox="0 0 573 553" version="1.1" xmlns="http://www.w3.org/2000/svg" xmlns:xlink="http://www.w3.org/1999/xlink">
    <defs></defs>
    <g id="Page-1" stroke="none" stroke-width="1" fill="none" fill-rule="evenodd">
        <g id="abraham" fill="#000000">
            <path d="M230.816116,0.390726138 C229.458489,0.650130777 226.186297,1.52580058 223.546637,2.33554435 C220.152568,3.37602926 217.420342,3.80741487 214.226832,3.80741487 C208.853403,3.80741487 206.082608,4.59566101 203.911947,6.74255687 C203.029489,7.61392715 201.502158,8.49246331 200.517878,8.69454096 C197.126894,9.38676439 195.021028,10.3727887 193.609404,11.9292165 C191.093165,14.7038429 188.101756,15.975069 182.151335,16.7962781 C179.048847,17.2247974 176.418444,17.8310303 176.305822,18.1434624 C176.191658,18.4558945 175.775113,18.7210319 175.380167,18.7310641 C174.983678,18.7425295 171.882733,21.2090233 168.488664,24.2143909 C165.094595,27.2197585 161.553964,30.1047394 160.620595,30.6249818 C159.687226,31.1452243 158.92356,31.774388 158.92356,32.0208941 C158.92356,32.2688333 158.437591,32.4752105 157.843629,32.47951 C157.115447,32.4838095 156.175907,33.6977086 154.957127,36.2057645 C153.962048,38.250905 152.920686,39.9234199 152.642989,39.9234199 C152.36375,39.9234199 152.135422,40.4422292 152.135422,41.0771257 C152.135422,41.7120221 151.877781,42.6794151 151.563058,43.2268879 C149.648495,46.5518534 148.411202,49.8725194 147.769414,53.3952631 C147.368297,55.6023523 146.380932,58.5131303 145.575612,59.8646142 C143.963429,62.5733146 143.397236,71.5478552 144.788805,72.3475667 C145.160609,72.5611098 145.354997,73.6073274 145.22232,74.6736094 C145.072672,75.8545455 145.247004,76.6126949 145.666634,76.6126949 C146.41333,76.6126949 148.747523,82.8183419 148.195216,83.3314184 C148.010085,83.5019662 148.266183,84.1812911 148.762951,84.8419847 C149.259719,85.5012451 149.667008,86.9200881 149.667008,87.9964024 C149.667008,90.0386765 150.612719,93.8236912 151.634025,95.8616657 C152.045942,96.6871744 151.908636,98.4442467 151.183539,101.594365 C149.130128,110.507279 149.497304,127.572091 151.819156,131.061872 C152.019715,131.362839 152.16782,142.917094 152.147764,156.737199 C152.129251,170.557303 152.36375,182.626068 152.669216,183.556199 C154.343109,188.645403 154.667089,190.236227 154.88616,194.419664 C155.174656,199.961751 156.200591,204.589472 157.763405,207.395629 C158.402108,208.542168 158.92356,210.269144 158.92356,211.232238 C158.92356,212.195331 159.201257,213.14266 159.540663,213.337571 C159.88007,213.532483 160.157767,214.325029 160.157767,215.098943 C160.157767,215.872858 160.409237,216.953471 160.716246,217.500944 C161.908798,219.624909 164.477491,225.55252 164.477491,226.180251 C164.477491,227.5389 168.877439,235.391265 170.983305,237.791833 C179.607326,247.620546 187.72378,255.035792 191.131734,256.200963 C191.70564,256.397308 192.671407,257.281577 193.276168,258.165846 C193.882473,259.048682 194.544316,259.901421 194.746417,260.05907 C195.937427,260.987767 197.199404,267.042931 197.606692,273.793184 C197.805708,277.106684 198.240766,279.103097 198.976662,280.099153 C200.784775,282.545583 201.39725,284.764137 201.823052,290.405113 C202.048294,293.378951 202.744079,297.377509 203.368896,299.290797 C204.379403,302.374989 206.440528,318.913826 206.440528,323.932805 C206.440528,326.366335 203.749957,329.054971 201.681118,328.688079 C200.8434,328.539028 200.269494,328.716742 200.269494,329.12663 C200.269494,329.506421 199.211161,330.111221 197.918329,330.470948 C196.625498,330.830675 194.90995,331.775137 194.107715,332.567683 C193.305481,333.361662 192.37674,334.01089 192.043504,334.01089 C191.710268,334.01089 190.489946,334.683049 189.331334,335.502825 C187.949022,336.483116 186.714816,336.90447 185.738249,336.732489 C184.686088,336.544743 184.149208,336.769751 183.897738,337.503537 C183.701808,338.076807 183.171099,338.405004 182.706728,338.240189 C181.728619,337.890494 178.63076,339.267775 177.470605,340.566231 C177.029376,341.059244 175.730373,341.463399 174.584104,341.463399 C173.437834,341.463399 172.499837,341.681241 172.499837,341.946379 C172.499837,343.077154 168.166227,344.660812 167.549124,343.755045 C167.052356,343.024126 166.962876,343.045624 166.955162,343.899796 C166.948991,344.511762 166.473821,344.903018 165.733297,344.903018 C165.065282,344.903018 163.468527,345.325805 162.184952,345.841748 C157.425541,347.756469 156.033973,348.129095 151.364042,348.735328 C150.091266,348.901576 149.049904,349.267036 149.049904,349.549371 C149.049904,349.831707 148.724382,350.062448 148.32635,350.062448 C147.929861,350.062448 147.166196,350.396377 146.629316,350.803399 C145.466076,351.689101 142.562604,352.583402 137.942041,353.482003 C136.075303,353.843163 133.363134,354.38347 131.916026,354.68157 C130.468918,354.978237 128.326026,355.221877 127.151987,355.221877 C125.97949,355.221877 124.066469,355.719189 122.901687,356.326855 C121.402125,357.109368 119.365684,357.473395 115.940759,357.569417 C112.162543,357.674039 110.803373,357.949209 109.75584,358.816279 C109.016858,359.428245 108.120515,359.760742 107.762595,359.555798 C107.406218,359.34942 106.296975,359.74211 105.300352,360.427168 C104.066145,361.274174 102.893649,361.590906 101.627044,361.418925 C100.176851,361.221147 99.6985955,361.407459 99.4563824,362.264498 C99.2727941,362.919459 98.857792,363.196062 98.4304479,362.950989 C98.0355016,362.724547 96.9756264,362.862132 96.0746553,363.256255 C93.2930613,364.474454 92.0372557,364.878609 90.1165211,365.17241 C86.4339561,365.735647 83.6369345,366.945247 83.6369345,367.974266 C83.6369345,368.527472 83.333011,368.980355 82.9612062,368.980355 C82.5894013,368.980355 81.4678157,369.520662 80.4711936,370.179922 C79.4730287,370.840616 78.2496211,371.236172 77.7528528,371.058459 C77.2329431,370.873579 76.8487961,371.067058 76.8487961,371.514208 C76.8487961,371.947027 75.9061706,372.457237 74.7213319,372.663614 C72.8962483,372.981779 69.9773488,374.764649 66.3580369,377.771449 C65.0374354,378.869261 56.5337493,383.885373 55.9937838,383.885373 C55.7469424,383.885373 55.0280168,384.521703 54.400114,385.299917 C53.7722112,386.076697 52.0396932,387.2605 50.550931,387.929792 C49.0621689,388.599085 47.8449322,389.381598 47.8449322,389.669667 C47.8449322,389.956302 47.4762129,390.191342 47.0272701,390.191342 C46.0337335,390.191342 43.5252078,392.579011 43.5252078,393.524907 C43.5252078,393.898965 43.3030506,394.204232 43.031525,394.204232 C41.7587491,394.204232 36.8419771,403.241832 36.1693343,406.81617 C35.7821018,408.86561 34.9551831,411.703296 34.3288231,413.122139 C33.0066789,416.121774 31.176967,423.082704 31.164625,425.160807 C31.1599967,425.949054 30.6123173,427.238911 29.9489311,428.027157 C29.2855449,428.815403 28.7363227,429.825791 28.728609,430.274375 C28.7208952,430.721526 27.9294599,432.39834 26.9683213,434.00063 C26.0071826,435.601486 24.8547418,438.202698 24.405799,439.77919 C23.9568562,441.355683 23.2163321,443.052562 22.7581327,443.549873 C22.3014761,444.048618 21.9265858,444.75804 21.9265858,445.126366 C21.9265858,445.496125 21.6488892,445.798525 21.3094823,445.798525 C20.9500195,445.798525 20.6923788,447.697481 20.6923788,450.350288 C20.6923788,452.854044 20.4146822,455.062567 20.0752753,455.257478 C19.7358684,455.45239 19.4581718,456.244936 19.4581718,457.01885 C19.4581718,457.792765 19.1172221,458.933572 18.7006773,459.552703 C18.1221428,460.414041 18.1098007,461.0862 18.6466807,462.409021 C19.0570545,463.420842 19.1156794,464.272148 18.7870718,464.461327 C18.4769773,464.639041 18.2239648,465.362794 18.2239648,466.069349 C18.2239648,466.775904 17.9678669,467.598547 17.6546869,467.89808 C17.3415069,468.197614 16.963531,470.248487 16.8138834,472.455576 C16.3572268,479.211562 14.7033894,486.337307 13.2886797,487.647229 C12.9184176,487.989758 12.6252934,488.485636 8.21300352,496.246278 C6.33083788,499.556912 4.45175776,503.684455 4.03675566,505.418596 C3.62175357,507.152738 3.03859077,509.011566 2.7423811,509.549006 C2.44617143,510.08788 2.04659692,512.409623 1.8568376,514.708436 C1.64547965,517.265219 1.17956652,519.12548 0.656571312,519.495239 C-0.050012181,519.996851 -0.136406669,522.924827 0.161345763,536.55002 L0.519265786,553 L286.759633,553 L573,553 L573,468.669128 L573,384.336823 L571.457241,383.210348 C570.608724,382.589783 569.914483,381.770007 569.914483,381.388783 C569.914483,381.007558 568.595424,380.338265 566.983241,379.901147 C565.371058,379.465462 563.016808,378.505235 561.750203,377.770016 C560.483599,377.034797 559.281789,376.432864 559.079688,376.432864 C558.877587,376.432864 557.868622,375.648917 556.836517,374.691557 C555.805954,373.732763 553.897562,372.444339 552.597016,371.828073 C551.29647,371.211808 550.00981,370.383433 549.736741,369.987877 C549.465216,369.590888 548.686123,368.987521 548.007309,368.646425 C547.328495,368.30533 546.517004,367.507051 546.205367,366.872155 C545.892187,366.237259 544.850824,365.44328 543.889686,365.10505 C542.664735,364.676531 542.254361,364.220782 542.518173,363.583019 C542.765015,362.985385 542.553657,362.674386 541.902613,362.674386 C541.356476,362.674386 540.910619,362.416414 540.910619,362.101116 C540.910619,361.785818 540.518758,361.527846 540.040503,361.527846 C539.560705,361.527846 538.474603,360.762531 537.627628,359.826668 C536.779111,358.889371 534.969455,357.583749 533.604113,356.921622 C532.238772,356.260929 530.790121,355.34943 530.385919,354.897979 C529.981716,354.445096 529.18411,354.075337 528.613289,354.075337 C528.042468,354.075337 526.303779,353.325787 524.748678,352.409988 C522.220097,350.919486 521.245073,350.714542 515.526067,350.46087 C512.008577,350.304654 506.63052,349.747149 503.575858,349.221174 C500.521195,348.693766 497.188837,348.120496 496.170616,347.944215 C493.964471,347.564424 492.818201,346.789076 492.130131,345.209718 C491.704329,344.233726 491.614849,344.207929 491.580909,345.046336 C491.516113,346.733183 486.512946,345.496353 485.835675,343.624626 C485.62586,343.045624 485.366677,343.054223 484.564442,343.669055 C482.966144,344.894419 473.646339,343.380987 473.646339,341.896218 C473.646339,341.658311 472.878045,341.463399 471.940047,341.463399 C471.00205,341.463399 468.572205,340.723881 466.540392,339.820981 C464.508579,338.916647 461.055885,337.861831 458.86671,337.476307 C454.645722,336.732489 450.196406,335.178927 450.196406,334.449441 C450.196406,334.208668 449.707351,334.01089 449.108761,334.01089 C448.019573,334.01089 442.610661,330.916665 439.705647,328.632185 C438.857129,327.964325 437.607495,327.137383 436.928681,326.793422 C436.249867,326.44946 434.366159,325.482067 432.741634,324.643659 C431.117109,323.805252 429.034385,323.105863 428.113358,323.088665 C425.140462,323.035637 417.172113,319.96291 417.267764,318.905227 C417.327932,318.225903 416.849676,317.959332 415.570729,317.959332 C414.589535,317.959332 413.7873,318.217304 413.7873,318.532602 C413.7873,320.017371 404.882497,318.230202 402.370886,316.240955 C401.692072,315.703515 400.652253,315.104448 400.059833,314.910969 C399.468957,314.717491 398.455364,313.750098 397.807405,312.761207 C397.16099,311.77375 395.770964,310.479593 394.718802,309.884825 C393.666641,309.290058 392.805782,308.54194 392.805782,308.222342 C392.805782,307.902744 392.302842,307.640473 391.687282,307.640473 C391.073264,307.640473 389.973277,307.124531 389.245095,306.493934 C388.516912,305.863337 387.327445,305.347394 386.602349,305.347394 C385.804743,305.347394 385.158327,304.895944 384.962396,304.200854 C384.548937,302.730417 383.515289,302.749048 381.438735,304.26678 C379.971572,305.338795 379.480975,305.407587 377.189978,304.861548 C375.766012,304.523318 373.629291,304.074735 372.441367,303.866924 C369.655144,303.378212 365.687169,301.509352 365.264453,300.486065 C365.08395,300.048947 362.57851,298.577076 359.69818,297.21556 C353.695305,294.38074 349.170394,290.724711 347.0599,287.005623 C346.256123,285.588213 345.111396,283.928596 344.517434,283.315197 C343.923472,282.701799 343.437503,281.902087 343.437503,281.538061 C343.437503,281.172601 342.869767,280.397254 342.173983,279.812518 C341.479742,279.229216 340.452265,277.834737 339.892243,276.713994 C339.332222,275.593252 338.691977,274.548467 338.471362,274.390818 C337.696898,273.840479 336.649364,271.590394 336.649364,270.481117 C336.649364,269.304481 335.850215,267.709357 333.932566,265.05655 C332.44689,263.002811 331.794303,255.902863 332.968342,254.588642 C333.636357,253.840524 333.624014,253.718705 332.897375,253.863455 C332.294156,253.985275 331.968634,253.414872 331.851385,252.033291 C331.495007,247.802559 330.384221,225.561119 330.120409,217.350461 C329.967676,212.620984 329.551131,208.219704 329.194754,207.570476 C327.996031,205.394917 328.733469,201.425022 330.478329,200.655407 C334.170151,199.028754 339.267426,197.572648 341.266841,197.572648 C341.862346,197.572648 343.46373,196.536463 344.827528,195.269537 C346.191327,194.00261 348.257081,192.547938 349.420321,192.034861 C351.518473,191.110463 356.396676,185.260244 356.396676,183.667987 C356.396676,183.236601 357.090917,181.238755 357.939435,179.228011 C358.787952,177.217267 359.482193,174.603156 359.482193,173.420787 C359.482193,172.236984 359.75989,171.110509 360.099297,170.915597 C360.870676,170.472746 360.918502,163.027403 360.153293,162.287885 C359.844742,161.988351 359.457509,160.324435 359.29552,158.590294 C357.649396,141.0554 348.752306,133.141409 339.82899,141.277542 C336.788213,144.049302 336.135626,142.211972 335.393559,128.780258 C334.836623,118.699306 334.031303,110.806813 333.290779,108.142541 C333.071707,107.354295 332.653619,104.387623 332.362038,101.549937 C331.195712,90.2077911 329.781003,82.8269409 328.299954,80.3618802 C327.49772,79.0261613 326.51344,76.7287821 326.115408,75.2569116 C325.715833,73.7850411 325.146555,72.4407231 324.848803,72.2701753 C324.099022,71.8402228 324.165361,69.160186 324.924398,69.160186 C325.263805,69.160186 325.541502,68.3862716 325.541502,67.4403762 C325.541502,66.3869927 325.248377,65.7764602 324.78555,65.8638839 C324.257926,65.9642061 323.87995,64.3748153 323.534372,60.6141646 C323.139426,56.3318383 322.787677,55.0190502 321.82191,54.2408362 C321.152353,53.7019625 320.604674,52.9653107 320.604674,52.6041506 C320.604674,51.6553889 319.351954,49.7249024 317.056329,47.1365887 C315.953256,45.8940262 315.050742,44.5669063 315.050742,44.1899813 C315.050742,43.8116232 313.558895,42.547563 311.735354,41.3809587 C309.911813,40.2143544 308.037361,38.5776688 307.569905,37.7449942 C305.916068,34.7955205 299.626241,29.6991509 294.32995,27.0176808 C291.426478,25.5472435 288.166629,23.6282224 287.086698,22.7525526 C286.005224,21.8768828 284.490235,20.976849 283.720398,20.7532738 C282.950562,20.5311317 281.073024,19.4634164 279.550321,18.3842358 C278.026076,17.303622 276.552741,16.4193532 276.275045,16.4193532 C275.998891,16.4193532 275.119518,15.7744245 274.321912,14.9861783 C273.524306,14.1979322 272.546197,13.5530035 272.146622,13.5530035 C271.747048,13.5530035 270.602321,12.8278171 269.602613,11.9406819 C268.604448,11.0535467 266.410645,9.98153193 264.729038,9.55874536 C260.852086,8.58275332 258.570346,7.52793666 257.542868,6.23807934 C254.310789,2.18219464 238.991195,-1.17000122 230.816116,0.390726138" id="path0"></path>
        </g>
    </g>
</svg>
